<svg width="340" height="193" viewBox="0 0 340 193" fill="none" xmlns="http://www.w3.org/2000/svg">
<circle cx="64.5626" cy="64.5626" r="64.5626" transform="matrix(1 8.74228e-08 8.74228e-08 -1 105.212 32.2505)" fill="url(#paint0_angular_24_505)" fill-opacity="0.4"/>
<circle cx="169.775" cy="225.939" r="64.5626" fill="url(#paint1_angular_24_505)" fill-opacity="0.4"/>
<circle cx="64.5626" cy="64.5626" r="64.5626" transform="matrix(-1 8.74228e-08 8.74228e-08 1 124.207 -32.6855)" fill="url(#paint2_angular_24_505)" fill-opacity="0.4"/>
<circle cx="282.113" cy="31.8771" r="64.5626" fill="url(#paint3_angular_24_505)" fill-opacity="0.4"/>
<circle cx="64.5626" cy="64.5626" r="64.5626" transform="matrix(1 8.74228e-08 8.74228e-08 -1 -4.91797 225.565)" fill="url(#paint4_angular_24_505)" fill-opacity="0.4"/>
<circle cx="282.113" cy="161.002" r="64.5626" transform="rotate(180 282.113 161.002)" fill="url(#paint5_angular_24_505)" fill-opacity="0.4"/>
<circle cx="394.452" cy="98.1041" r="64.5626" transform="rotate(90 394.452 98.1041)" fill="url(#paint6_angular_24_505)" fill-opacity="0.4"/>
<circle cx="64.5626" cy="64.5626" r="64.5626" transform="matrix(-0.5 -0.866025 -0.866025 0.5 483.036 249.959)" fill="url(#paint7_angular_24_505)" fill-opacity="0.4"/>
<circle cx="394.841" cy="-31.7683" r="64.5626" transform="rotate(120 394.841 -31.7683)" fill="url(#paint8_angular_24_505)" fill-opacity="0.4"/>
<circle cx="-55.8058" cy="226.327" r="64.5626" transform="rotate(-60 -55.8058 226.327)" fill="url(#paint9_angular_24_505)" fill-opacity="0.4"/>
<circle cx="169.563" cy="98.1043" r="64.5626" transform="rotate(-90 169.563 98.1043)" fill="url(#paint10_angular_24_505)" fill-opacity="0.4"/>
<defs>
<radialGradient id="paint0_angular_24_505" cx="0" cy="0" r="1" gradientUnits="userSpaceOnUse" gradientTransform="translate(64.5626 64.5626) rotate(90) scale(64.5626)">
<stop stop-opacity="0"/>
<stop offset="1" stop-color="#505050"/>
</radialGradient>
<radialGradient id="paint1_angular_24_505" cx="0" cy="0" r="1" gradientUnits="userSpaceOnUse" gradientTransform="translate(169.775 225.939) rotate(90) scale(64.5626)">
<stop stop-opacity="0"/>
<stop offset="1" stop-color="#505050"/>
</radialGradient>
<radialGradient id="paint2_angular_24_505" cx="0" cy="0" r="1" gradientUnits="userSpaceOnUse" gradientTransform="translate(64.5626 64.5626) rotate(90) scale(64.5626)">
<stop stop-opacity="0"/>
<stop offset="1" stop-color="#505050"/>
</radialGradient>
<radialGradient id="paint3_angular_24_505" cx="0" cy="0" r="1" gradientUnits="userSpaceOnUse" gradientTransform="translate(282.113 31.8771) rotate(90) scale(64.5626)">
<stop stop-opacity="0"/>
<stop offset="1" stop-color="#505050"/>
</radialGradient>
<radialGradient id="paint4_angular_24_505" cx="0" cy="0" r="1" gradientUnits="userSpaceOnUse" gradientTransform="translate(64.5626 64.5626) rotate(90) scale(64.5626)">
<stop stop-opacity="0"/>
<stop offset="1" stop-color="#505050"/>
</radialGradient>
<radialGradient id="paint5_angular_24_505" cx="0" cy="0" r="1" gradientUnits="userSpaceOnUse" gradientTransform="translate(282.113 161.002) rotate(90) scale(64.5626)">
<stop stop-opacity="0"/>
<stop offset="1" stop-color="#505050"/>
</radialGradient>
<radialGradient id="paint6_angular_24_505" cx="0" cy="0" r="1" gradientUnits="userSpaceOnUse" gradientTransform="translate(394.452 98.1041) rotate(90) scale(64.5626)">
<stop stop-opacity="0"/>
<stop offset="1" stop-color="#505050"/>
</radialGradient>
<radialGradient id="paint7_angular_24_505" cx="0" cy="0" r="1" gradientUnits="userSpaceOnUse" gradientTransform="translate(64.5626 64.5626) rotate(90) scale(64.5626)">
<stop stop-opacity="0"/>
<stop offset="1" stop-color="#505050"/>
</radialGradient>
<radialGradient id="paint8_angular_24_505" cx="0" cy="0" r="1" gradientUnits="userSpaceOnUse" gradientTransform="translate(394.841 -31.7683) rotate(90) scale(64.5626)">
<stop stop-opacity="0"/>
<stop offset="1" stop-color="#505050"/>
</radialGradient>
<radialGradient id="paint9_angular_24_505" cx="0" cy="0" r="1" gradientUnits="userSpaceOnUse" gradientTransform="translate(-55.8058 226.327) rotate(90) scale(64.5626)">
<stop stop-opacity="0"/>
<stop offset="1" stop-color="#505050"/>
</radialGradient>
<radialGradient id="paint10_angular_24_505" cx="0" cy="0" r="1" gradientUnits="userSpaceOnUse" gradientTransform="translate(169.563 98.1043) rotate(90) scale(64.5626)">
<stop stop-opacity="0"/>
<stop offset="1" stop-color="#505050"/>
</radialGradient>
</defs>
</svg>
