<svg width="24" height="30" viewBox="0 0 24 30" fill="none" xmlns="http://www.w3.org/2000/svg">
<path id="Vector" d="M0.312955 11.3333C0.18814 11.1668 0.0978323 10.9776 0.0471872 10.7766C-0.00345785 10.5756 -0.013448 10.3668 0.0177872 10.162C0.0808695 9.74838 0.308042 9.37643 0.649329 9.12795C0.990616 8.87947 1.41806 8.7748 1.83763 8.83699C2.2572 8.89917 2.63453 9.12311 2.88661 9.45953C3.47776 10.2416 3.93979 11.1108 4.25557 12.0351C4.58387 12.994 4.75035 13.9995 4.7484 15.0116C4.7495 16.021 4.58302 17.0239 4.25557 17.9804C3.93979 18.9046 3.47776 19.7739 2.88661 20.5559C2.63453 20.8923 2.2572 21.1163 1.83763 21.1784C1.41806 21.2406 0.990616 21.136 0.649329 20.8875C0.308042 20.639 0.0808696 20.267 0.0177872 19.8535C-0.0452951 19.4399 0.0608801 19.0185 0.312955 18.6821C0.703565 18.1697 1.0098 17.5998 1.22038 16.9933C1.44428 16.3557 1.56056 15.6863 1.56458 15.0116C1.56727 14.3407 1.45893 13.674 1.24385 13.0375C1.02754 12.4242 0.71329 11.8489 0.312955 11.3333ZM5.78881 8.39539C7.03395 10.3834 7.68972 12.6752 7.68189 15.0116C7.69254 17.3437 7.04231 19.6325 5.80445 21.62C5.69402 21.7962 5.61987 21.9922 5.58625 22.1966C5.55263 22.401 5.56019 22.61 5.60849 22.8116C5.6568 23.0132 5.7449 23.2034 5.86778 23.3714C5.99066 23.5394 6.14591 23.6819 6.32466 23.7907C6.50341 23.8996 6.70215 23.9727 6.90956 24.0058C7.11696 24.039 7.32895 24.0315 7.53343 23.9839C7.73792 23.9363 7.93088 23.8494 8.10131 23.7283C8.27174 23.6072 8.4163 23.4541 8.52673 23.2779C10.0778 20.793 10.8909 17.9291 10.8735 15.0116C10.8919 12.0914 10.0788 9.22479 8.52673 6.73749C8.4163 6.56129 8.27174 6.40825 8.10131 6.28712C7.93088 6.166 7.73792 6.07914 7.53343 6.03153C7.32895 5.98391 7.11696 5.97646 6.90956 6.0096C6.70215 6.04275 6.50341 6.11584 6.32466 6.22469C6.14591 6.33355 5.99066 6.47605 5.86778 6.64405C5.7449 6.81206 5.6568 7.00227 5.60849 7.20384C5.56018 7.40541 5.55263 7.61438 5.58625 7.81883C5.61987 8.02327 5.69402 8.21919 5.80445 8.39539H5.78881ZM11.6167 5.42659C13.3452 8.3446 14.255 11.6634 14.2529 15.0424C14.254 18.4189 13.3442 21.7349 11.6167 24.6505C11.5104 24.8293 11.4408 25.0269 11.4119 25.2321C11.3831 25.4374 11.3955 25.6462 11.4486 25.8467C11.5016 26.0472 11.5942 26.2354 11.721 26.4006C11.8478 26.5659 12.0064 26.7048 12.1877 26.8097C12.369 26.9145 12.5695 26.983 12.7777 27.0115C12.9859 27.0399 13.1978 27.0276 13.4012 26.9754C13.6046 26.9231 13.7955 26.8318 13.9631 26.7068C14.1308 26.5818 14.2717 26.4255 14.3781 26.2467C16.3976 22.8517 17.4591 18.9858 17.4524 15.0501C17.4657 11.1 16.4069 7.21823 14.3859 3.80724C14.168 3.44526 13.8133 3.1834 13.3995 3.07928C12.9858 2.97516 12.5471 3.0373 12.1799 3.25204C11.8127 3.46678 11.547 3.81652 11.4414 4.22433C11.3358 4.63214 11.3988 5.0646 11.6167 5.42659ZM17.4211 2.41923C19.6443 6.26472 20.8093 10.6163 20.8005 15.0424C20.8083 19.466 19.6434 23.8148 17.4211 27.6579C17.3184 27.8376 17.2525 28.0356 17.2274 28.2404C17.2023 28.4452 17.2183 28.6529 17.2746 28.8516C17.3309 29.0503 17.4264 29.2361 17.5555 29.3985C17.6847 29.5608 17.845 29.6965 18.0273 29.7977C18.2097 29.899 18.4105 29.9639 18.6182 29.9886C18.826 30.0134 19.0367 29.9976 19.2383 29.9421C19.4399 29.8866 19.6284 29.7925 19.7931 29.6652C19.9578 29.5379 20.0954 29.3799 20.1981 29.2001C22.6947 24.8794 24.0051 19.9917 23.9999 15.0193C24.0115 10.0339 22.7009 5.13205 20.1981 0.799889C19.9906 0.436879 19.6454 0.169979 19.2383 0.0579043C18.8312 -0.0541703 18.3956 -0.00223903 18.0273 0.202274C17.6591 0.406787 17.3883 0.747128 17.2746 1.14843C17.1609 1.54973 17.2136 1.97911 17.4211 2.34212" fill="white"/>
</svg>
