<svg width="37" height="23" viewBox="0 0 37 23" fill="none" xmlns="http://www.w3.org/2000/svg">
<g id="Payment System Logo">
<path id="Vector" d="M24.0066 2.45898H12.9982V20.5392H24.0066V2.45898Z" fill="#FF5F00"/>
<path id="Vector_2" d="M14.132 11.5007C14.1306 9.7597 14.5231 8.04123 15.2797 6.47532C16.0363 4.9094 17.1373 3.53706 18.4992 2.46216C16.8124 1.12913 14.7866 0.300203 12.6535 0.070108C10.5204 -0.159987 8.36592 0.218038 6.43634 1.16098C4.50675 2.10392 2.87991 3.57373 1.74174 5.40243C0.603576 7.23113 0 9.34493 0 11.5023C0 13.6596 0.603576 15.7734 1.74174 17.6021C2.87991 19.4308 4.50675 20.9006 6.43634 21.8435C8.36592 22.7865 10.5204 23.1645 12.6535 22.9344C14.7866 22.7043 16.8124 21.8754 18.4992 20.5423C17.1368 19.4671 16.0357 18.0943 15.279 16.5278C14.5224 14.9613 14.1302 13.2422 14.132 11.5007V11.5007Z" fill="#EB001B"/>
<path id="Vector_3" d="M35.9074 18.6261V18.2556H36.0662V18.179H35.6882V18.2556H35.8375V18.6261H35.9074ZM36.6411 18.6261V18.179H36.5267L36.3933 18.4983L36.2599 18.179H36.1456V18.6261H36.2282V18.2875L36.352 18.5782H36.4378L36.5617 18.2875V18.6261H36.6411Z" fill="#F79E1B"/>
<path id="Vector_4" d="M37 11.5007C36.9999 13.6581 36.3962 15.7721 35.2579 17.6009C34.1195 19.4296 32.4924 20.8994 30.5626 21.8422C28.6327 22.785 26.4781 23.1628 24.3448 22.9324C22.2116 22.7019 20.1858 21.8726 18.4991 20.5392C19.8605 19.4633 20.9611 18.0906 21.7179 16.5246C22.4747 14.9586 22.868 13.2402 22.868 11.4991C22.868 9.75794 22.4747 8.03955 21.7179 6.47355C20.9611 4.90755 19.8605 3.53483 18.4991 2.45898C20.1858 1.12553 22.2116 0.296196 24.3448 0.0657707C26.4781 -0.164655 28.6327 0.213127 30.5626 1.15593C32.4924 2.09874 34.1195 3.56853 35.2579 5.39729C36.3962 7.22605 36.9999 9.33999 37 11.4975V11.5007Z" fill="#F79E1B"/>
</g>
</svg>
